<!DOCTYPE svg PUBLIC "-//W3C//DTD SVG 1.1//EN" "http://www.w3.org/Graphics/SVG/1.1/DTD/svg11.dtd">
<!-- Uploaded to: SVG Repo, www.svgrepo.com, Transformed by: SVG Repo Mixer Tools -->
<svg fill="#000000" width="800px" height="800px" viewBox="0 0 24 24" id="down-direction" data-name="Flat Line" xmlns="http://www.w3.org/2000/svg" class="icon flat-line">
<g id="SVGRepo_bgCarrier" stroke-width="0"/>
<g id="SVGRepo_tracerCarrier" stroke-linecap="round" stroke-linejoin="round"/>
<g id="SVGRepo_iconCarrier">
<path id="secondary" d="M20,14.46l-7.35,6.3a1,1,0,0,1-1.3,0L4,14.46l2.6-3L10,14.34V4a1,1,0,0,1,1-1h2a1,1,0,0,1,1,1V14.34l3.4-2.92Z" style="fill: #0000; stroke-width: 2;"/>
<path id="primary" d="M20,14.46l-7.35,6.3a1,1,0,0,1-1.3,0L4,14.46l2.6-3L10,14.34V4a1,1,0,0,1,1-1h2a1,1,0,0,1,1,1V14.34l3.4-2.92Z" style="fill: none; stroke: #f6da76; stroke-linecap: round; stroke-linejoin: round; stroke-width: 2;"/>
</g>
</svg>