<!DOCTYPE svg PUBLIC "-//W3C//DTD SVG 1.1//EN" "http://www.w3.org/Graphics/SVG/1.1/DTD/svg11.dtd">
<!-- Uploaded to: SVG Repo, www.svgrepo.com, Transformed by: SVG Repo Mixer Tools -->
<svg fill="#000000" width="800px" height="800px" viewBox="0 0 24 24" id="left-direction" data-name="Flat Line" xmlns="http://www.w3.org/2000/svg" class="icon flat-line">
<g id="SVGRepo_bgCarrier" stroke-width="0"/>
<g id="SVGRepo_tracerCarrier" stroke-linecap="round" stroke-linejoin="round"/>
<g id="SVGRepo_iconCarrier">
<path id="secondary" d="M21,11v2a1,1,0,0,1-1,1H9.66l2.92,3.4-3,2.6-6.3-7.35a1,1,0,0,1,0-1.3L9.54,4l3,2.6L9.66,10H20A1,1,0,0,1,21,11Z" style="fill: #0000; stroke-width: 2;"/>
<path id="primary" d="M21,11v2a1,1,0,0,1-1,1H9.66l2.92,3.4-3,2.6-6.3-7.35a1,1,0,0,1,0-1.3L9.54,4l3,2.6L9.66,10H20A1,1,0,0,1,21,11Z" style="fill: none; stroke: #f6da76; stroke-linecap: round; stroke-linejoin: round; stroke-width: 2;"/>
</g>
</svg>