<!DOCTYPE svg PUBLIC "-//W3C//DTD SVG 1.1//EN" "http://www.w3.org/Graphics/SVG/1.1/DTD/svg11.dtd">
<!-- Uploaded to: SVG Repo, www.svgrepo.com, Transformed by: SVG Repo Mixer Tools -->
<svg fill="#000000" width="800px" height="800px" viewBox="0 0 24 24" id="right-direction" data-name="Flat Line" xmlns="http://www.w3.org/2000/svg" class="icon flat-line">
<g id="SVGRepo_bgCarrier" stroke-width="0"/>
<g id="SVGRepo_tracerCarrier" stroke-linecap="round" stroke-linejoin="round"/>
<g id="SVGRepo_iconCarrier">
<path id="secondary" d="M20.76,12.65,14.46,20l-3-2.6L14.34,14H4a1,1,0,0,1-1-1V11a1,1,0,0,1,1-1H14.34L11.42,6.6l3-2.6,6.3,7.35A1,1,0,0,1,20.76,12.65Z" style="fill: #0000; stroke-width: 2;"/>
<path id="primary" d="M20.76,12.65,14.46,20l-3-2.6L14.34,14H4a1,1,0,0,1-1-1V11a1,1,0,0,1,1-1H14.34L11.42,6.6l3-2.6,6.3,7.35A1,1,0,0,1,20.76,12.65Z" style="fill: none; stroke: #f6da76; stroke-linecap: round; stroke-linejoin: round; stroke-width: 2;"/>
</g>
</svg>