<!DOCTYPE svg PUBLIC "-//W3C//DTD SVG 1.1//EN" "http://www.w3.org/Graphics/SVG/1.1/DTD/svg11.dtd">
<!-- Uploaded to: SVG Repo, www.svgrepo.com, Transformed by: SVG Repo Mixer Tools -->
<svg fill="#000000" width="800px" height="800px" viewBox="0 0 24 24" id="up-direction" data-name="Flat Line" xmlns="http://www.w3.org/2000/svg" class="icon flat-line">
<g id="SVGRepo_bgCarrier" stroke-width="0"/>
<g id="SVGRepo_tracerCarrier" stroke-linecap="round" stroke-linejoin="round"/>
<g id="SVGRepo_iconCarrier">
<path id="secondary" d="M20,9.54l-2.6,3L14,9.66V20a1,1,0,0,1-1,1H11a1,1,0,0,1-1-1V9.66L6.6,12.58,4,9.54l7.35-6.3a1,1,0,0,1,1.3,0Z" style="fill: #0000; stroke-width: 2;"/>
<path id="primary" d="M20,9.54l-2.6,3L14,9.66V20a1,1,0,0,1-1,1H11a1,1,0,0,1-1-1V9.66L6.6,12.58,4,9.54l7.35-6.3a1,1,0,0,1,1.3,0Z" style="fill: none; stroke: #f6da76; stroke-linecap: round; stroke-linejoin: round; stroke-width: 2;"/>
</g>
</svg>